<?xml version="1.0" encoding="UTF-8"?>
<svg id="Layer_1" xmlns="http://www.w3.org/2000/svg" viewBox="0 0 963 515">
  <defs>
    <style>
      .cls-1 {
        fill: #fff;
      }
    </style>
  </defs>
  <path class="cls-1" d="M182.53,165.01c-9.37,3.79-17.66,7.04-25.87,10.49-15.87,6.68-19.2,6.27-31.71-5.47-1.89-1.77-2.99-4.71-3.75-7.31-4.31-14.83-8.51-29.69-12.46-44.61-.46-1.75.31-4.27,1.34-5.91,9.51-15.01,19.07-30,28.96-44.76,1.74-2.59,4.96-4.35,7.77-6.04,12.25-7.37,24.64-14.49,36.87-21.9,2.95-1.79,5.28-1.77,8.25-.07,8.66,4.94,17.44,9.68,26.27,14.3,3.32,1.74,4.88,4.02,4.89,7.84.02,11.31.9,22.65.23,33.91-.36,5.95-2.81,11.92-5.15,17.54-1.66,3.98-9.14,4.9-11.4,1.84-5.2-7.04-11.59-11.3-20.53-8.07-9.1,3.29-13.52,10.78-14.3,19.88-.39,4.55.91,9.58,2.66,13.9,1.92,4.76,5.24,8.95,7.95,13.39.51-.12,1.02-.24,1.54-.36.78-5.33,1.78-10.64,2.27-15.99.51-5.59,3.07-9.01,8.42-11.05,14.12-5.39,28.13-11.07,42.11-16.81,4.04-1.66,7.48-1.54,11.31.75,10.7,6.39,21.73,12.25,32.34,18.78,2.88,1.77,4.92,5.08,7.01,7.92,3.2,4.34,5.77,9.18,9.27,13.25,2.07,2.41,2.42,4.44,2.48,7.48.22,10.57-6.04,14.72-15.04,16.85-1.98.47-3.8,1.67-6.75,3.02,3.42,2.6,5.87,4.8,8.67,6.36.8.44,2.86-.69,3.95-1.58,3.57-2.89,6.79-6.23,10.46-8.97,7.98-5.98,16.22-11.61,24.24-17.54,5.78-4.28,11.68-4.86,17.49-.57,12.14,8.98,24.24,18.02,36,27.48,1.97,1.58,3.02,5.46,2.93,8.23-.34,10.46-1.29,20.91-2.08,31.35-.12,1.64-.23,3.43-.94,4.84-4.87,9.64-9.34,19.56-15.15,28.6-2.47,3.85-7.79,5.97-12,8.57-9.9,6.12-19.99,11.92-29.83,18.12-4.27,2.7-7.85,2.37-11.13-1.15-3.91-4.21-7.69-4.56-11.88-.42-3.43,3.39-6.68,3.06-10.39-.18-6.63-5.79-13.83-10.94-20.41-16.78-1.83-1.63-3.05-4.68-3.3-7.21-.87-8.59-1.16-17.24-1.75-25.85-.07-1.06-.64-2.08-1.19-3.78-5.23,3.49-9.78,7.13-14.85,9.79-11.61,6.1-18.25,14.84-18.91,28.44-.71,14.74-2.62,29.42-3.92,44.13-.14,1.56.25,3.17.43,5.19,1.5-.4,2.51-.45,3.27-.91,11.49-7.02,22.98-14.05,34.39-21.19,2.25-1.41,4.08-3.03,6.3,0,2.12,2.91.33,4.46-1.68,6.2-12.73,10.96-25.38,22.02-38.16,32.92-2.94,2.51-4.24,5.35-3.83,9.16.2,1.81-.18,3.69.08,5.48,2.4,16.42-6.18,29.09-14.23,41.95-.23.36-.77.53-1.99,1.32.18-3.3.41-5.98.47-8.66.29-13.45,1.12-26.92.66-40.34-.94-27.57,1.8-54.79,6.21-81.91.83-5.08,1.49-10.25,2.98-15.15.89-2.91,2.68-6.14,5.05-7.88,7.89-5.81,16.46-10.72,24.28-16.61,2.93-2.2,5.31-5.89,6.57-9.39,3.95-10.92,7.05-22.15,10.97-33.09.82-2.29,3.5-4.34,5.82-5.57,4.53-2.4,9.37-4.25,14.17-6.14,4.04-1.59,3.72-4.74,2.98-7.89-.78-3.3-3.27-4.42-6.49-3.98-7.25.99-14.49,2.04-21.75,3-1.84.24-3.72.26-5.57.38-.08-.42-.16-.83-.24-1.25,6.23-2.43,12.48-4.82,18.68-7.33,3.14-1.27,6.33-2.6,5.11-7.15-1.07-4-4.14-5.77-8.87-5.04-10.02,1.55-20.04,3.04-30.07,4.51-.78.11-1.6-.06-2.83-1.3,7.29-2.74,14.59-5.48,22.82-8.57-5.72-5.83-11.92-8.48-17.99-11.31-.49-.23-1.34.03-1.92.28-11.15,4.76-22.27,9.6-33.45,14.3-4.33,1.82-6.21,5.1-6.88,9.53-2.69,17.92-5.71,35.79-8.15,53.73-2.96,21.75-9.84,42.38-17.49,62.77-14.37,38.27-29.13,76.4-43.45,114.69-3.19,8.53-5.51,17.42-7.61,26.29-.65,2.75-.04,6.45,1.39,8.92,8.65,14.97,17.77,29.66,26.55,44.56,2.05,3.49,4.4,4.24,8.23,3.33,26.6-6.34,52.22-15.49,77.18-26.56,24.64-10.93,48.66-23.03,71.54-37.35,3.87-2.42,4.39-4.79,2.72-8.54-3.76-8.46-7.41-16.96-10.42-26.33,1.77.9,3.67,1.62,5.3,2.74,26.7,18.39,53.37,36.83,80.05,55.24,28.33,19.55,56.68,39.08,85,58.64,4.88,3.37,9.67,6.88,14.13,11.45-1.53-.46-3.13-.77-4.58-1.41-26.77-11.81-53.59-23.52-80.27-35.54-23.04-10.37-45.95-21.02-68.83-31.73-3.83-1.8-6.97-1.81-10.8.06-42.04,20.52-85.59,37.37-129.86,52.32-19.67,6.64-39.71,12.17-59.54,18.35-4.48,1.39-7.02.18-9.04-4.08-11.18-23.54-22.51-47-33.92-70.42-1.93-3.96-.87-7.44.69-10.95,11.25-25.34,22.25-50.8,33.91-75.95,15.58-33.6,32.23-66.72,47.37-100.52,7.61-16.98,11.45-35.37,13.62-53.95.27-2.34.04-4.74.04-8ZM284.05,250.98c.47.02.94.05,1.41.07.26-1.69.77-3.38.72-5.06-.21-6.99,2.42-12.8,6.47-18.38,7.8-10.74,15.19-21.79,22.87-32.62,1.21-1.7,2.9-3.19,4.66-4.36,8.44-5.61,16.99-11.04,25.45-16.62,1.44-.95,2.62-2.3,3.93-3.47-1.94-.81-3.33-.86-4.4-.31-11.34,5.83-22.64,11.73-33.9,17.71-.95.5-1.67,1.63-2.25,2.61-8.67,14.54-17.55,28.96-25.82,43.72-3.03,5.41-1.1,11.29.87,16.71ZM132.56,122.33c.51.35,1.03.7,1.54,1.05,9.69-11.86,18.8-24.27,29.23-35.43,10.36-11.08,22.06-20.92,33.17-31.31-1.79-.44-3.27-.25-4.43.46-10.63,6.52-21.23,13.08-31.75,19.78-1.62,1.03-3.08,2.63-4.08,4.29-7.53,12.54-14.93,25.16-22.33,37.78-.61,1.03-.9,2.24-1.35,3.37ZM313.74,238.27l1.43,1.1c1.4-1.28,2.97-2.42,4.18-3.85,4.19-4.94,8.31-9.93,12.34-15,3.5-4.41,6.3-9.54,10.37-13.3,6.57-6.06,13.95-11.24,20.95-16.84,1.47-1.18,2.78-2.56,4.17-3.85-.22-.36-.43-.72-.65-1.08-1.89.79-3.91,1.37-5.66,2.39-7.6,4.42-15.02,9.18-22.73,13.41-4.61,2.53-7.74,6.03-9.96,10.66-1.36,2.84-3.11,5.48-4.62,8.25-3.3,6.03-6.55,12.08-9.83,18.12Z"/>
  <path class="cls-1" d="M790.15,389.93c1.82-7.69,3.63-15.39,5.47-23.08.35-1.45,1.2-2.91,1.11-4.33-1-15.74-1.97-31.5-3.38-47.21-.36-4.05-3.99-4.92-7.67-4.52-4.89.53-8.36,3.98-8.34,8.96.05,12.31.32,24.61.6,36.91.28,12.88-5.64,23.91-9.66,35.51-.49-.04-.98-.09-1.47-.13-.23-2.73-1.02-5.56-.6-8.18,2.6-16.04-3.73-30.77-6.42-46.03-.6-3.43-1.8-6.75-2.4-10.18-.63-3.58-.94-7.15-5.94-6.92-4.81.21-9.12,3.51-9.11,8.2.02,5.94.59,11.96,1.7,17.8,2.79,14.57,5.08,29.12,2.83,43.99-.22,1.44-.49,2.88-.98,5.72-1.79-2.18-3.1-3.29-3.8-4.7-5.73-11.59-11.36-23.24-17.01-34.87-.94-1.94-1.64-4.04-2.79-5.84-1.64-2.57-2.25-6.95-7.03-5.11-4.46,1.71-6.86,6.07-5.72,10.34,2.06,7.7,4.33,15.35,6.37,23.06,1.83,6.91,3.28,13.92,5.27,20.78,1.28,4.4.23,7.35-3.23,10.43-5.2,4.63-9.81,9.93-14.64,14.97-5.58,5.82-8.12,12.85-8.05,20.85.06,6.49.19,12.97.23,19.46,0,1.7-.24,3.41-.36,5.11-.46.04-.92.08-1.38.13-2.17-6.85-4.09-13.79-6.55-20.53-3.97-10.88-3.46-20.54,5.51-29.07,3.5-3.33,5.91-7.81,8.82-11.76-.26-.57-.52-1.13-.78-1.7-36.98,7.69-73.95,15.37-110.93,23.06l-1.07-1.26c2.33-5.4,4.72-10.78,6.99-16.2,15.83-37.85,31.61-75.71,47.44-113.56,6.54-15.63,13.35-31.15,19.61-46.89,1.88-4.74,4.15-5.61,8.62-3.92,25.51,9.61,51.11,19.01,76.6,28.66,11.81,4.47,23.54,9.18,35.16,14.14,5.04,2.15,8.77,1.16,13.27-1.74,37.06-23.86,74.31-47.42,111.51-71.06.94-.6,2.01-1,4.21-2.07-1.18,2.6-1.79,4.21-2.6,5.72-24.2,44.73-48.39,89.46-72.67,134.14-1.4,2.58-3.06,5.46-5.39,6.99-4.63,3.05-6.97,7.34-8.91,12.2-5.19,12.95-10.48,25.87-15.86,38.75-.74,1.76-1.97,3.5-3.4,4.77-23.64,20.96-47.35,41.86-71.07,62.73-1.7,1.5-3.63,2.75-5.45,4.12-.32-.29-.65-.58-.97-.87,2.32-3.06,4.34-6.4,7-9.12,21.15-21.64,42.44-43.14,63.59-64.78,2.02-2.06,3.75-4.61,4.94-7.23,5.52-12.09,10.9-24.25,16.11-36.47,1.07-2.51,1.67-5.43,1.68-8.16.03-11.31-.29-22.62-.41-33.93-.04-3.98-.62-7.42-5.58-7.84-4.34-.37-7.85,2.48-8.23,7.49-.69,9.12-1.65,18.29-1.27,27.4.59,14.12-7.38,25.1-11.64,37.43-.63-.18-1.25-.35-1.88-.53ZM623.11,377.12c.55.29,1.1.59,1.65.88,4.05-5.57,8.43-10.93,12.09-16.75,15.65-24.89,31.14-49.9,46.54-74.94,1.77-2.87,3.6-3.78,6.89-3.09,9.27,1.97,18.6,3.66,27.9,5.47,19.58,3.8,39.15,7.62,58.74,11.36,1.56.3,3.22.04,4.84.04-1.37-1.93-2.85-2.97-4.49-3.55-14.38-5.16-28.64-10.72-43.23-15.21-16.98-5.23-34.27-9.46-51.41-14.23-4.89-1.36-8.01-.46-10.09,4.78-3.11,7.86-6.95,15.44-10.64,23.07-12.34,25.58-24.77,51.12-37.1,76.7-.82,1.7-1.15,3.64-1.71,5.46Z"/>
  <path class="cls-1" d="M381.03,51.18c11.74,0,22.33-.23,32.9.07,10.41.29,20.81,1.12,31.21,1.71.38-.44.77-.88,1.15-1.32-2.78-5.43-5.56-10.86-9.04-17.67,6.41,1.27,11.65,2.18,16.84,3.36,29.75,6.76,58.64,16.02,85.92,29.87,3.85,1.96,7.51,4.31,11.42,6.14,3.74,1.75,4.95,4.45,4.57,8.4-1.31,13.56-1.84,27.23-3.86,40.67-2.98,19.85-6.51,39.65-10.68,59.29-4.19,19.74-10.16,38.92-24,54.58-1.36,1.53-2.03,4.21-1.99,6.33.09,4.8,1.2,9.59,1.2,14.38,0,5.63,3.18,8.03,7.74,10.2,23.28,11.05,46.46,22.32,69.66,33.52,1.17.57,2.29,1.25,4.62,2.53-2.09.1-2.94.3-3.72.16-27.48-4.93-54.95-9.93-82.45-14.79-3.44-.61-4.76-2.2-4.94-5.6-.43-8.13-1.13-16.25-1.74-24.37-.12-1.6-.36-3.19-.69-6.16-3.91,3.39-7.14,5.84-9.94,8.69-3.23,3.29-5.85,3.57-9.77.61-17.08-12.96-34.41-25.59-51.68-38.31-1.51-1.11-3.2-1.98-4.8-2.96-.58.32-1.16.63-1.74.95,5.64,19.19,11.27,38.38,17.16,58.43-1.84-.76-2.92-1.03-3.79-1.6-16.09-10.62-32.15-21.27-48.21-31.93-5.66-3.75-5.93-3.98-1.87-9.66,10.33-14.45,17.15-30.34,20.16-47.8.42-2.46.04-6.09-1.51-7.7-10.78-11.16-10.82-25.88-14.43-40.17,2.42.57,4.18.99,6.88,1.63-12.06-19.33-23.64-37.89-35.22-56.45.24-.32.49-.65.73-.97,11.95,3.2,23.89,6.39,35.84,9.59.33-.44.65-.87.98-1.31-7.51-13.86-15.01-27.73-22.92-42.34ZM444.83,134.92c-1.46-.47-3-.86-4.45-1.46-3.68-1.53-7.25-3.38-11.03-4.6-.99-.32-3.73,1.22-3.72,1.88.1,12.07-1.33,24.29,3.37,35.96,3.23,8,6.12,16.14,9.29,24.16,3.22,8.13,5.89,16.6,10.09,24.21,7.3,13.23,18.77,22.73,31.16,31.06,10.85,7.29,10.92,7.19,20.48-1.97.24-.23.49-.45.72-.69,9.32-10.17,19.36-20,24.38-33.12,6.32-16.52,12.01-33.31,17.3-50.19,3.44-10.97,1.8-22.37-.02-33.47-1.14-6.91-3.47-13.62-5.62-21.78-5.55,4.17-10.02,7.25-14.15,10.72-3.1,2.6-5.58,2.73-9.3.75-8.62-4.61-17.6-8.56-26.52-12.59-1.75-.79-3.87-.77-6.75-1.28,1.59,3.32,2.63,5.5,4.3,9-16.78-8.14-31.88-16.04-51.09-16.77,7.16,13.33,15.84,24.8,11.57,40.21Z"/>
  <path class="cls-1" d="M110.32,157.9c-6.27-4.4-11.55-7.59-16.13-11.58-1.88-1.63-2.64-4.9-3.24-7.57-2.03-9.07-4.08-18.17-5.43-27.35-.51-3.49-.12-7.82,1.56-10.81,8.22-14.61,16.96-28.94,25.69-43.27,1.13-1.85,2.99-3.57,4.91-4.57,10.76-5.6,21.62-11.02,32.54-16.31,1.44-.7,3.51-.78,5.1-.38,3.49.87,6.86,2.24,11.52,3.83-2.29,1.6-3.62,2.65-5.05,3.52-8.54,5.15-17.23,10.06-25.6,15.48-2.77,1.79-5.37,4.49-6.95,7.38-7.73,14.14-15.26,28.4-22.44,42.83-1.41,2.84-1.67,6.67-1.28,9.91,1.32,11.04,3.19,22.01,4.78,33.02.2,1.39.03,2.83.03,5.87Z"/>
</svg>